<?xml version="1.0" standalone="no"?>
<!DOCTYPE svg PUBLIC "-//W3C//DTD SVG 20010904//EN"
 "http://www.w3.org/TR/2001/REC-SVG-20010904/DTD/svg10.dtd">
<svg version="1.0" xmlns="http://www.w3.org/2000/svg"
 width="512.000000pt" height="512.000000pt" viewBox="0 0 512.000000 512.000000"
 preserveAspectRatio="xMidYMid meet">

<g transform="translate(0.000000,512.000000) scale(0.100000,-0.100000)"
fill="#000000" stroke="none">
<path d="M2128 4402 l-288 -167 0 -123 0 -123 44 26 c24 14 156 90 292 169
l249 144 3 121 c1 67 -1 121 -5 120 -4 0 -137 -75 -295 -167z"/>
<path d="M2030 3900 l-775 -448 4 -464 c3 -430 8 -534 21 -449 5 32 15 39 210
152 113 65 208 119 213 119 4 0 7 -58 7 -130 l0 -130 -82 -47 c-45 -27 -75
-49 -66 -51 19 -4 774 430 808 465 l25 25 -25 -12 c-14 -7 -59 -32 -101 -56
-42 -24 -79 -44 -82 -44 -4 0 -7 58 -7 129 l0 129 274 157 c150 87 279 167
285 178 7 10 9 17 4 14 -4 -2 -130 -75 -279 -161 -150 -86 -274 -156 -278
-156 -3 0 -6 58 -6 129 l0 129 304 176 c168 97 307 176 310 176 3 0 6 -51 6
-112 0 -77 3 -108 10 -98 11 18 14 830 3 829 -5 0 -357 -202 -783 -449z m770
281 l0 -129 -755 -436 c-416 -240 -758 -436 -761 -436 -2 0 -3 59 -2 131 l3
132 750 433 c413 239 753 434 758 434 4 0 7 -58 7 -129z m0 -290 l0 -129 -305
-176 c-167 -97 -307 -176 -310 -176 -3 0 -4 59 -3 131 l3 132 300 173 c165 95
303 174 308 174 4 0 7 -58 7 -129z m-646 -372 l7 -126 -210 -122 c-116 -66
-213 -121 -216 -121 -3 0 -4 59 -3 131 l3 132 205 118 c112 65 205 117 206
116 1 -1 5 -59 8 -128z m-444 -253 l0 -133 -210 -122 c-115 -66 -212 -121
-215 -121 -3 0 -4 59 -3 131 l3 132 210 122 c116 68 211 123 213 124 1 1 2
-59 2 -133z m448 -37 l-3 -130 -205 -119 c-113 -66 -209 -120 -213 -120 -4 0
-6 59 -5 131 l3 131 205 119 c113 65 209 118 213 119 4 0 6 -59 5 -131z m-450
-260 l-3 -131 -205 -119 c-113 -65 -209 -119 -213 -119 -4 0 -6 59 -5 131 l3
131 205 119 c113 65 209 119 213 119 4 0 6 -59 5 -131z m450 -30 l-3 -132
-205 -118 c-113 -65 -208 -119 -212 -119 -5 0 -8 58 -8 129 l0 129 208 120
c114 67 211 121 215 121 4 1 6 -58 5 -130z"/>
<path d="M2398 1382 c-44 -26 -78 -53 -78 -62 0 -14 149 -110 171 -110 4 0 44
21 88 47 51 29 81 54 81 64 0 17 -150 110 -174 108 -6 0 -46 -21 -88 -47z"/>
<path d="M2158 1243 c-50 -29 -78 -52 -78 -63 0 -12 28 -34 81 -64 45 -25 85
-46 89 -46 21 0 170 97 170 110 0 16 -150 111 -173 109 -7 0 -47 -21 -89 -46z"/>
<path d="M2658 1234 c-48 -29 -78 -52 -78 -63 0 -11 31 -35 83 -65 l82 -48 44
23 c81 43 131 78 131 93 0 14 -152 106 -174 106 -6 0 -46 -21 -88 -46z"/>
<path d="M1918 1103 c-50 -29 -78 -52 -78 -63 0 -11 29 -34 82 -65 l83 -48 73
39 c90 48 110 67 92 89 -14 16 -152 95 -166 94 -5 0 -44 -21 -86 -46z"/>
<path d="M2418 1094 c-53 -30 -78 -51 -78 -63 0 -13 26 -33 83 -66 l82 -47 63
34 c93 49 119 72 104 91 -15 18 -150 97 -166 97 -6 0 -46 -21 -88 -46z"/>
<path d="M2915 1086 c-96 -58 -96 -70 2 -126 43 -25 81 -46 85 -48 3 -2 43 18
87 44 106 61 107 74 4 132 -42 23 -83 42 -92 41 -9 0 -47 -20 -86 -43z"/>
<path d="M1678 964 c-52 -31 -78 -52 -78 -64 0 -12 27 -34 82 -66 l82 -47 63
33 c34 18 74 43 90 56 24 19 26 24 14 38 -14 17 -153 96 -167 96 -5 -1 -44
-21 -86 -46z"/>
<path d="M2178 954 c-53 -30 -78 -51 -78 -63 0 -12 26 -33 80 -65 44 -25 83
-46 86 -46 4 0 43 21 86 46 101 60 101 72 -2 131 -41 24 -79 43 -85 43 -5 0
-45 -21 -87 -46z"/>
<path d="M2675 946 c-97 -59 -97 -72 2 -127 43 -24 81 -45 85 -47 3 -2 43 18
88 44 102 59 102 72 5 130 -38 24 -79 42 -90 42 -11 0 -51 -19 -90 -42z"/>
<path d="M3100 868 c1 -14 141 -98 164 -98 17 0 153 77 162 91 15 25 -10 17
-84 -26 l-79 -46 -78 45 c-85 51 -85 51 -85 34z"/>
<path d="M1937 815 c-53 -31 -77 -51 -77 -64 0 -13 24 -33 80 -65 43 -25 82
-46 85 -46 3 0 42 21 85 46 56 32 80 52 80 65 0 13 -24 33 -77 64 -43 25 -82
45 -88 45 -6 0 -45 -20 -88 -45z"/>
<path d="M2440 810 c-79 -47 -92 -58 -87 -73 3 -11 154 -106 169 -107 4 0 43
21 88 47 102 60 102 72 0 130 -41 24 -82 43 -90 43 -8 -1 -44 -18 -80 -40z"/>
<path d="M2188 663 c-43 -25 -78 -52 -78 -59 0 -14 34 -38 125 -88 l50 -28 83
48 c53 32 82 55 82 66 0 19 -142 108 -170 107 -8 0 -50 -21 -92 -46z"/>
<path d="M2570 585 c-136 -80 -195 -120 -195 -132 0 -18 136 -103 166 -103 27
0 404 224 407 242 2 12 -20 30 -75 62 -43 25 -85 45 -93 45 -8 0 -103 -52
-210 -114z"/>
</g>
</svg>
